<svg xmlns="http://www.w3.org/2000/svg"  viewBox="0 0 512 512">
  <path d="M43.5 1C24.4 4 9.3 17 2.8 35.8L.5 42.5v427l2.3 6.7C9.2 494.6 24.7 508 43 510.9c9 1.5 417 1.5 426 0 18.3-2.9 33.8-16.3 40.2-34.7l2.3-6.7v-427l-2.3-6.7c-5.6-16.1-16.1-26.7-32.8-33L470.5.5l-211-.1C143.5.3 46.3.6 43.5 1zm242.7 103.7c10.7 4.9 21.6 19.3 35.6 47.1 35.5 70.1 69 182 71.9 240.2.6 12.4.6 12.6-2 15.5l-2.5 3-30.1.3c-32.5.3-35.1-.1-37-5.1-.4-1.2-1.4-8.5-2-16.2-1.1-12.6-5.3-41.3-6.7-45.8-.5-1.6-4.2-1.7-58.8-1.7h-58.3l-1.7 10.5c-2.4 15.5-4.6 35.2-4.6 41.5 0 8.3-1.6 12.8-5.3 15.1-3 1.8-4.8 1.9-32.4 1.7-29-.3-29.3-.3-31.5-2.6-2.1-2.1-2.3-3.1-2.1-11 .1-4.8.9-14.6 1.8-21.7 12.2-96 70.4-249 102.3-268.7 6.8-4.2 11.2-4.8 35.7-4.5 21.2.2 23.4.4 27.7 2.4z"/><path d="M251.6 174.8c-4.1 6.5-14.5 27.8-19.3 39.5-5.1 12.5-17.9 50.7-21.6 64.4l-2.5 9.3h45.9c28.7 0 45.9-.4 45.9-1 0-2.1-10.3-34.9-16.1-51.1-9.9-28-26.5-64.9-29.1-64.9-.4 0-1.9 1.7-3.2 3.8z"/>

      <style>
        path { fill: #000; }
        @media (prefers-color-scheme: dark) {
            path { fill: #FFF; }
        }
    </style>
</svg>